<svg width="814" height="260" viewBox="0 0 814 260" fill="none" xmlns="http://www.w3.org/2000/svg">
<rect width="814" height="259.453" rx="32" fill="url(#paint0_linear_839_144)"/>
<path d="M197.95 215.651H72.0472L71.6545 215.448C55.9913 207.415 60.6298 190.055 60.6784 189.88L60.7568 189.6L112.329 112.057V61.5259C109.283 57.532 108.193 53.8376 109.095 50.5379C110.372 45.8676 115.171 43.9991 115.374 43.9218L115.689 43.8018H154.312L154.628 43.9218C154.829 43.9991 159.631 45.8676 160.907 50.5379C161.809 53.8366 160.719 57.532 157.674 61.5259V112.056L209.244 189.599L209.323 189.879C209.37 190.054 214.008 207.415 198.346 215.447L197.95 215.651Z" fill="#F7F7F7"/>
<path d="M188.219 180.492L157.732 128.346L114.154 128.346L81.7821 180.492C81.7821 180.492 78.5062 196.469 89.1514 203.902H180.848C191.495 196.469 188.219 180.492 188.219 180.492Z" fill="url(#paint1_linear_839_144)"/>
<path d="M157.891 128.833C157.891 130.813 149.885 132.435 134.901 132.435C119.917 132.435 114.02 130.84 114.02 128.858C114.02 126.873 119.917 125.259 134.901 125.259C149.885 125.259 157.891 126.849 157.891 128.833Z" fill="url(#paint2_linear_839_144)"/>
<path d="M143.417 149.224C142.404 148.778 141.505 148.119 140.707 147.326V145.184C140.707 143.776 139.566 142.635 138.158 142.635C137.956 142.635 137.762 142.665 137.573 142.709C137.516 142.591 137.46 142.474 137.405 142.355V142.761C136.368 143.084 135.609 144.04 135.609 145.184V176.649C132.088 175.31 125.537 173.226 120.808 175.014C117.618 176.22 113.129 181.131 115.829 185.827C118.53 190.523 126.061 191.258 132.65 187.47C137.725 184.551 140.758 179.801 140.652 175.626C140.685 175.46 140.707 175.287 140.707 175.104V156.711C147.713 160.348 151.839 162.78 149.486 173.761C149.486 174.816 156.346 167.693 154.763 160.833C153.179 153.973 150.013 152.126 143.417 149.224Z" fill="white"/>
<path d="M337.92 90.6266V166.227H325.5V112.335L302.496 150.351H300.984L277.98 112.227V166.227H265.56V90.6266H278.952L301.74 128.427L324.636 90.6266H337.92ZM388.634 112.227H400.298V166.227H388.634V159.315C385.07 164.931 379.454 167.631 371.894 167.631C365.63 167.631 360.662 165.687 356.882 161.691C352.994 157.803 351.158 152.295 351.158 145.383V112.227H362.822V144.195C362.822 148.299 363.902 151.323 366.062 153.483C368.222 155.643 371.138 156.723 374.918 156.723C379.022 156.723 382.262 155.535 384.854 152.943C387.338 150.351 388.634 146.463 388.634 141.171V112.227ZM424.096 127.131C424.096 128.967 425.068 130.371 427.012 131.451C428.956 132.531 431.44 133.395 434.248 134.151C437.056 134.907 439.972 135.771 442.888 136.743C445.696 137.823 448.18 139.551 450.124 141.927C452.068 144.303 453.148 147.327 453.148 150.999C453.148 156.183 451.096 160.287 447.1 163.203C443.104 166.227 438.136 167.631 432.088 167.631C426.688 167.631 422.152 166.551 418.372 164.283C414.484 162.123 411.784 158.991 410.056 154.995L420.1 149.163C421.936 154.347 425.932 156.939 432.088 156.939C438.136 156.939 441.268 154.995 441.268 150.891C441.268 149.163 440.188 147.759 438.244 146.679C436.3 145.599 433.816 144.735 431.008 143.979C428.2 143.223 425.284 142.359 422.476 141.279C419.56 140.307 417.076 138.687 415.132 136.311C413.188 133.935 412.216 131.019 412.216 127.347C412.216 122.379 414.052 118.383 417.832 115.359C421.612 112.335 426.364 110.823 431.98 110.823C436.408 110.823 440.404 111.903 443.86 113.847C447.316 115.791 450.016 118.599 451.96 122.055L442.132 127.563C440.188 123.459 436.84 121.407 431.98 121.407C429.712 121.407 427.876 121.947 426.364 122.919C424.852 123.891 424.096 125.295 424.096 127.131ZM468.601 104.127C466.549 104.127 464.821 103.479 463.309 101.967C461.797 100.455 461.149 98.7266 461.149 96.6746C461.149 94.7306 461.797 93.0026 463.309 91.4906C464.713 89.9786 466.441 89.2226 468.601 89.2226C470.653 89.2226 472.381 89.9786 473.893 91.4906C475.297 93.0026 476.053 94.7306 476.053 96.6746C476.053 98.7266 475.297 100.455 473.785 101.967C472.273 103.479 470.545 104.127 468.601 104.127ZM462.769 166.227V112.227H474.433V166.227H462.769ZM513.464 167.631C505.256 167.631 498.452 164.931 493.052 159.423C487.652 154.023 484.952 147.219 484.952 139.227C484.952 131.235 487.652 124.431 493.052 119.031C498.452 113.631 505.256 110.823 513.464 110.823C518.648 110.823 523.508 112.119 527.828 114.603C532.148 117.195 535.388 120.543 537.548 124.755L527.504 130.587C526.208 127.995 524.372 126.051 521.888 124.539C519.404 123.027 516.596 122.271 513.356 122.271C508.604 122.271 504.608 123.891 501.368 127.131C498.128 130.371 496.616 134.475 496.616 139.227C496.616 144.087 498.128 148.083 501.368 151.323C504.608 154.563 508.604 156.183 513.356 156.183C516.488 156.183 519.296 155.427 521.888 153.915C524.48 152.403 526.424 150.459 527.72 147.867L537.764 153.591C535.388 157.911 532.148 161.367 527.828 163.851C523.508 166.443 518.648 167.631 513.464 167.631ZM586.687 154.347H617.467V166.227H574.267V90.6266H586.687V154.347ZM667.01 112.227H678.674V166.227H667.01V158.451C662.582 164.607 656.318 167.631 648.11 167.631C640.658 167.631 634.286 164.931 629.102 159.423C623.81 153.915 621.218 147.219 621.218 139.227C621.218 131.235 623.81 124.539 629.102 119.031C634.286 113.631 640.658 110.823 648.11 110.823C656.318 110.823 662.582 113.847 667.01 119.895V112.227ZM649.946 156.507C654.806 156.507 658.91 154.887 662.15 151.647C665.39 148.407 667.01 144.195 667.01 139.227C667.01 134.259 665.39 130.155 662.15 126.915C658.91 123.675 654.806 121.947 649.946 121.947C644.978 121.947 640.982 123.675 637.742 126.915C634.502 130.155 632.882 134.259 632.882 139.227C632.882 144.195 634.502 148.407 637.742 151.647C640.982 154.887 644.978 156.507 649.946 156.507ZM722.833 110.823C730.177 110.823 736.549 113.631 741.841 119.031C747.025 124.539 749.725 131.235 749.725 139.227C749.725 147.219 747.025 153.915 741.841 159.423C736.549 164.931 730.177 167.631 722.833 167.631C714.625 167.631 708.253 164.607 703.933 158.451V166.227H692.269V90.6266H703.933V119.895C708.253 113.847 714.625 110.823 722.833 110.823ZM720.997 156.507C725.857 156.507 729.961 154.887 733.201 151.647C736.441 148.407 738.061 144.195 738.061 139.227C738.061 134.259 736.441 130.155 733.201 126.915C729.961 123.675 725.857 121.947 720.997 121.947C716.029 121.947 712.033 123.675 708.793 126.915C705.553 130.155 703.933 134.259 703.933 139.227C703.933 144.195 705.553 148.407 708.793 151.647C712.033 154.887 716.029 156.507 720.997 156.507Z" fill="white"/>
<defs>
<linearGradient id="paint0_linear_839_144" x1="-521.992" y1="416.553" x2="-286.662" y2="-275.708" gradientUnits="userSpaceOnUse">
<stop stop-color="#075985"/>
<stop offset="1" stop-color="#5B21B6"/>
</linearGradient>
<linearGradient id="paint1_linear_839_144" x1="53.0458" y1="220.012" x2="134.178" y2="115.217" gradientUnits="userSpaceOnUse">
<stop stop-color="#075985"/>
<stop offset="1" stop-color="#5B21B6"/>
</linearGradient>
<linearGradient id="paint2_linear_839_144" x1="102.474" y1="133.965" x2="105.249" y2="118.546" gradientUnits="userSpaceOnUse">
<stop stop-color="#075985"/>
<stop offset="1" stop-color="#5B21B6"/>
</linearGradient>
</defs>
</svg>
