<svg width="840" height="258" viewBox="0 0 840 258" fill="none" xmlns="http://www.w3.org/2000/svg">
<rect width="840" height="258" rx="32" fill="url(#paint0_linear_849_358)"/>
<path d="M205.074 206.905H90.9228L90.5667 206.721C76.3654 199.438 80.571 183.698 80.6151 183.54L80.6861 183.285L127.445 112.98V67.1651C124.683 63.5439 123.695 60.1944 124.513 57.2027C125.67 52.9683 130.022 51.2742 130.206 51.204L130.491 51.0952H165.51L165.796 51.204C165.978 51.2742 170.332 52.9683 171.489 57.2027C172.307 60.1935 171.319 63.5439 168.557 67.1651V112.979L215.315 183.284L215.386 183.539C215.429 183.697 219.634 199.438 205.433 206.72L205.074 206.905Z" fill="#F7F7F7"/>
<path d="M200.1 179.836C199.958 178.488 199.442 177.226 198.734 176.07L173.638 135.09C171.457 131.529 167.581 129.357 163.404 129.357L134.219 129.357C130.158 129.357 126.373 131.411 124.159 134.816L97.4038 175.959C96.6057 177.187 96.0286 178.544 95.8834 180.001C95.5046 183.8 95.4608 191.742 100.6 197.228C102.219 198.956 104.634 199.57 107.002 199.57H188.997C191.365 199.57 193.78 198.957 195.399 197.228C200.615 191.662 200.493 183.566 200.1 179.836Z" fill="url(#paint1_linear_849_358)"/>
<path d="M156.432 150.063C155.568 149.683 154.802 149.121 154.122 148.445V146.62C154.122 145.421 153.15 144.448 151.95 144.448C151.778 144.448 151.612 144.473 151.452 144.511C151.403 144.411 151.355 144.311 151.309 144.21V144.556C150.425 144.831 149.778 145.645 149.778 146.62V173.432C146.778 172.291 141.196 170.515 137.166 172.038C134.448 173.066 130.622 177.251 132.924 181.252C135.225 185.254 141.642 185.88 147.257 182.652C151.581 180.165 154.166 176.117 154.075 172.56C154.103 172.418 154.122 172.271 154.122 172.115V156.442C160.092 159.542 163.608 161.614 161.603 170.971C161.603 171.87 167.448 165.801 166.099 159.955C164.75 154.109 162.052 152.536 156.432 150.063Z" fill="white"/>
<path d="M343.92 89.9V165.5H331.5V111.608L308.496 149.624H306.984L283.98 111.5V165.5H271.56V89.9H284.952L307.74 127.7L330.636 89.9H343.92ZM394.634 111.5H406.298V165.5H394.634V158.588C391.07 164.204 385.454 166.904 377.894 166.904C371.63 166.904 366.662 164.96 362.882 160.964C358.994 157.076 357.158 151.568 357.158 144.656V111.5H368.822V143.468C368.822 147.572 369.902 150.596 372.062 152.756C374.222 154.916 377.138 155.996 380.918 155.996C385.022 155.996 388.262 154.808 390.854 152.216C393.338 149.624 394.634 145.736 394.634 140.444V111.5ZM430.096 126.404C430.096 128.24 431.068 129.644 433.012 130.724C434.956 131.804 437.44 132.668 440.248 133.424C443.056 134.18 445.972 135.044 448.888 136.016C451.696 137.096 454.18 138.824 456.124 141.2C458.068 143.576 459.148 146.6 459.148 150.272C459.148 155.456 457.096 159.56 453.1 162.476C449.104 165.5 444.136 166.904 438.088 166.904C432.688 166.904 428.152 165.824 424.372 163.556C420.484 161.396 417.784 158.264 416.056 154.268L426.1 148.436C427.936 153.62 431.932 156.212 438.088 156.212C444.136 156.212 447.268 154.268 447.268 150.164C447.268 148.436 446.188 147.032 444.244 145.952C442.3 144.872 439.816 144.008 437.008 143.252C434.2 142.496 431.284 141.632 428.476 140.552C425.56 139.58 423.076 137.96 421.132 135.584C419.188 133.208 418.216 130.292 418.216 126.62C418.216 121.652 420.052 117.656 423.832 114.632C427.612 111.608 432.364 110.096 437.98 110.096C442.408 110.096 446.404 111.176 449.86 113.12C453.316 115.064 456.016 117.872 457.96 121.328L448.132 126.836C446.188 122.732 442.84 120.68 437.98 120.68C435.712 120.68 433.876 121.22 432.364 122.192C430.852 123.164 430.096 124.568 430.096 126.404ZM474.601 103.4C472.549 103.4 470.821 102.752 469.309 101.24C467.797 99.728 467.149 98 467.149 95.948C467.149 94.004 467.797 92.276 469.309 90.764C470.713 89.252 472.441 88.496 474.601 88.496C476.653 88.496 478.381 89.252 479.893 90.764C481.297 92.276 482.053 94.004 482.053 95.948C482.053 98 481.297 99.728 479.785 101.24C478.273 102.752 476.545 103.4 474.601 103.4ZM468.769 165.5V111.5H480.433V165.5H468.769ZM519.464 166.904C511.256 166.904 504.452 164.204 499.052 158.696C493.652 153.296 490.952 146.492 490.952 138.5C490.952 130.508 493.652 123.704 499.052 118.304C504.452 112.904 511.256 110.096 519.464 110.096C524.648 110.096 529.508 111.392 533.828 113.876C538.148 116.468 541.388 119.816 543.548 124.028L533.504 129.86C532.208 127.268 530.372 125.324 527.888 123.812C525.404 122.3 522.596 121.544 519.356 121.544C514.604 121.544 510.608 123.164 507.368 126.404C504.128 129.644 502.616 133.748 502.616 138.5C502.616 143.36 504.128 147.356 507.368 150.596C510.608 153.836 514.604 155.456 519.356 155.456C522.488 155.456 525.296 154.7 527.888 153.188C530.48 151.676 532.424 149.732 533.72 147.14L543.764 152.864C541.388 157.184 538.148 160.64 533.828 163.124C529.508 165.716 524.648 166.904 519.464 166.904ZM592.687 153.62H623.467V165.5H580.267V89.9H592.687V153.62ZM673.01 111.5H684.674V165.5H673.01V157.724C668.582 163.88 662.318 166.904 654.11 166.904C646.658 166.904 640.286 164.204 635.102 158.696C629.81 153.188 627.218 146.492 627.218 138.5C627.218 130.508 629.81 123.812 635.102 118.304C640.286 112.904 646.658 110.096 654.11 110.096C662.318 110.096 668.582 113.12 673.01 119.168V111.5ZM655.946 155.78C660.806 155.78 664.91 154.16 668.15 150.92C671.39 147.68 673.01 143.468 673.01 138.5C673.01 133.532 671.39 129.428 668.15 126.188C664.91 122.948 660.806 121.22 655.946 121.22C650.978 121.22 646.982 122.948 643.742 126.188C640.502 129.428 638.882 133.532 638.882 138.5C638.882 143.468 640.502 147.68 643.742 150.92C646.982 154.16 650.978 155.78 655.946 155.78ZM728.833 110.096C736.177 110.096 742.549 112.904 747.841 118.304C753.025 123.812 755.725 130.508 755.725 138.5C755.725 146.492 753.025 153.188 747.841 158.696C742.549 164.204 736.177 166.904 728.833 166.904C720.625 166.904 714.253 163.88 709.933 157.724V165.5H698.269V89.9H709.933V119.168C714.253 113.12 720.625 110.096 728.833 110.096ZM726.997 155.78C731.857 155.78 735.961 154.16 739.201 150.92C742.441 147.68 744.061 143.468 744.061 138.5C744.061 133.532 742.441 129.428 739.201 126.188C735.961 122.948 731.857 121.22 726.997 121.22C722.029 121.22 718.033 122.948 714.793 126.188C711.553 129.428 709.933 133.532 709.933 138.5C709.933 143.468 711.553 147.68 714.793 150.92C718.033 154.16 722.029 155.78 726.997 155.78Z" fill="white"/>
<defs>
<linearGradient id="paint0_linear_849_358" x1="-465.768" y1="358.238" x2="-235.777" y2="-283.517" gradientUnits="userSpaceOnUse">
<stop stop-color="#075985"/>
<stop offset="1" stop-color="#5B21B6"/>
</linearGradient>
<linearGradient id="paint1_linear_849_358" x1="118.514" y1="181.384" x2="185.454" y2="144.144" gradientUnits="userSpaceOnUse">
<stop stop-color="#3641A2"/>
<stop offset="1" stop-color="#622DC5"/>
</linearGradient>
</defs>
</svg>
