<svg width="798" height="260" viewBox="0 0 798 260" fill="none" xmlns="http://www.w3.org/2000/svg">
<rect width="797.18" height="259.453" rx="32" fill="url(#paint0_linear_839_144)"/>
<path d="M177.999 209.453H61.1782L60.8138 209.266C46.2804 201.812 50.5844 185.704 50.6295 185.542L50.7022 185.281L98.5548 113.332V66.4457C95.7279 62.7398 94.7165 59.3119 95.5539 56.2503C96.7383 51.9169 101.191 50.1831 101.38 50.1114L101.672 50H137.51L137.802 50.1114C137.989 50.1831 142.445 51.9169 143.628 56.2503C144.466 59.311 143.454 62.7398 140.628 66.4457V113.331L188.479 185.28L188.552 185.541C188.596 185.703 192.899 201.812 178.367 209.265L177.999 209.453Z" fill="#F7F7F7"/>
<path d="M168.97 176.832L140.682 128.446L100.248 128.446L70.2107 176.832C70.2107 176.832 67.1711 191.656 77.0485 198.552H162.131C172.009 191.656 168.97 176.832 168.97 176.832Z" fill="url(#paint1_linear_839_144)"/>
<path d="M140.83 128.899C140.83 130.737 133.402 132.241 119.499 132.241C105.595 132.241 100.123 130.761 100.123 128.923C100.123 127.081 105.595 125.583 119.499 125.583C133.402 125.583 140.83 127.059 140.83 128.899Z" fill="url(#paint2_linear_839_144)"/>
<path d="M126.93 148.762C126.047 148.373 125.263 147.798 124.566 147.107V145.239C124.566 144.011 123.571 143.016 122.344 143.016C122.168 143.016 121.998 143.042 121.834 143.081C121.784 142.978 121.735 142.875 121.687 142.772V143.126C120.783 143.408 120.121 144.241 120.121 145.239V172.678C117.05 171.51 111.338 169.693 107.214 171.252C104.433 172.303 100.517 176.586 102.872 180.681C105.227 184.776 111.795 185.417 117.541 182.113C121.966 179.568 124.611 175.426 124.519 171.785C124.547 171.64 124.566 171.49 124.566 171.33V155.291C130.676 158.463 134.274 160.583 132.222 170.159C132.222 171.079 138.204 164.868 136.824 158.885C135.443 152.903 132.682 151.293 126.93 148.762Z" fill="white"/>
<path d="M330.181 90.6266V166.227H315.385V117.195L294.109 152.295H292.381L271.105 117.303V166.227H256.201V90.6266H271.537L293.245 126.375L314.845 90.6266H330.181ZM379.259 112.227H393.191V166.227H379.259V160.179C375.803 165.255 370.511 167.739 363.167 167.739C357.227 167.739 352.367 165.795 348.479 161.799C344.591 157.911 342.755 152.403 342.755 145.383V112.227H356.687V143.655C356.687 147.327 357.659 150.027 359.603 151.971C361.547 153.915 364.139 154.779 367.379 154.779C370.943 154.779 373.859 153.699 376.019 151.431C378.179 149.271 379.259 145.923 379.259 141.387V112.227ZM418.381 127.563C418.381 129.075 419.245 130.263 421.189 131.127C423.133 131.991 425.401 132.855 428.209 133.503C430.909 134.151 433.609 135.015 436.417 136.095C439.117 137.175 441.385 138.903 443.329 141.279C445.273 143.763 446.245 146.787 446.245 150.459C446.245 156.075 444.085 160.287 439.981 163.311C435.877 166.335 430.693 167.739 424.537 167.739C413.413 167.739 405.853 163.527 401.857 154.887L413.953 148.083C415.465 152.835 419.029 155.103 424.537 155.103C429.505 155.103 431.989 153.591 431.989 150.459C431.989 149.055 431.017 147.867 429.073 147.003C427.129 146.139 424.861 145.275 422.161 144.519C419.353 143.871 416.653 142.899 413.953 141.819C411.145 140.739 408.877 139.119 406.933 136.743C404.989 134.367 404.125 131.451 404.125 127.887C404.125 122.595 406.069 118.383 409.957 115.359C413.845 112.335 418.813 110.715 424.645 110.715C428.965 110.715 432.961 111.795 436.633 113.739C440.197 115.683 443.005 118.491 445.165 122.163L433.285 128.643C431.557 124.971 428.641 123.135 424.645 123.135C422.809 123.135 421.297 123.567 420.109 124.323C418.921 125.187 418.381 126.267 418.381 127.563ZM462.117 105.747C459.741 105.747 457.797 104.991 456.069 103.263C454.341 101.535 453.585 99.5906 453.585 97.2146C453.585 94.9466 454.341 92.8946 456.069 91.1666C457.797 89.4386 459.741 88.5746 462.117 88.5746C464.493 88.5746 466.437 89.4386 468.165 91.1666C469.893 92.8946 470.757 94.9466 470.757 97.2146C470.757 99.5906 469.893 101.535 468.165 103.263C466.437 104.991 464.493 105.747 462.117 105.747ZM455.205 166.227V112.227H469.137V166.227H455.205ZM507.593 167.739C499.385 167.739 492.581 165.039 487.181 159.531C481.781 154.131 479.081 147.327 479.081 139.227C479.081 131.235 481.781 124.431 487.181 118.923C492.581 113.523 499.385 110.715 507.593 110.715C512.777 110.715 517.637 112.011 521.957 114.495C526.277 117.087 529.517 120.435 531.785 124.647L519.797 131.667C518.717 129.507 516.989 127.671 514.829 126.375C512.669 125.079 510.185 124.431 507.485 124.431C503.273 124.431 499.817 125.835 497.117 128.643C494.309 131.451 493.013 134.907 493.013 139.227C493.013 143.547 494.309 147.003 497.117 149.811C499.817 152.619 503.273 153.915 507.485 153.915C510.293 153.915 512.777 153.375 514.937 152.079C517.097 150.783 518.825 149.055 519.905 146.787L532.001 153.699C529.625 158.019 526.277 161.367 521.957 163.959C517.637 166.551 512.777 167.739 507.593 167.739ZM582.343 151.971H611.179V166.227H567.439V90.6266H582.343V151.971ZM658.983 112.227H672.915V166.227H658.983V159.855C654.771 165.147 648.939 167.739 641.379 167.739C634.143 167.739 627.987 165.039 622.803 159.531C617.619 154.023 615.135 147.219 615.135 139.227C615.135 131.235 617.619 124.539 622.803 119.031C627.987 113.523 634.143 110.715 641.379 110.715C648.939 110.715 654.771 113.415 658.983 118.599V112.227ZM643.971 154.455C648.291 154.455 651.855 153.051 654.663 150.243C657.471 147.435 658.983 143.763 658.983 139.227C658.983 134.799 657.471 131.127 654.663 128.319C651.855 125.511 648.291 123.999 643.971 123.999C639.651 123.999 636.087 125.511 633.279 128.319C630.471 131.127 629.067 134.799 629.067 139.227C629.067 143.763 630.471 147.435 633.279 150.243C636.087 153.051 639.651 154.455 643.971 154.455ZM716.977 110.715C724.213 110.715 730.369 113.523 735.553 119.031C740.737 124.539 743.329 131.235 743.329 139.227C743.329 147.219 740.737 154.023 735.553 159.531C730.369 165.039 724.213 167.739 716.977 167.739C709.417 167.739 703.585 165.147 699.481 159.855V166.227H685.549V90.6266H699.481V118.599C703.585 113.415 709.417 110.715 716.977 110.715ZM714.385 154.455C718.705 154.455 722.269 153.051 725.077 150.243C727.885 147.435 729.397 143.763 729.397 139.227C729.397 134.799 727.885 131.127 725.077 128.319C722.269 125.511 718.705 123.999 714.385 123.999C710.065 123.999 706.501 125.511 703.693 128.319C700.885 131.127 699.481 134.799 699.481 139.227C699.481 143.763 700.885 147.435 703.693 150.243C706.501 153.051 710.065 154.455 714.385 154.455Z" fill="white"/>
<defs>
<linearGradient id="paint0_linear_839_144" x1="-209.791" y1="314.776" x2="-27.0996" y2="-195.35" gradientUnits="userSpaceOnUse">
<stop stop-color="#075985"/>
<stop offset="1" stop-color="#5B21B6"/>
</linearGradient>
<linearGradient id="paint1_linear_839_144" x1="43.5472" y1="213.501" x2="118.827" y2="116.265" gradientUnits="userSpaceOnUse">
<stop stop-color="#075985"/>
<stop offset="1" stop-color="#5B21B6"/>
</linearGradient>
<linearGradient id="paint2_linear_839_144" x1="89.4104" y1="133.661" x2="91.9855" y2="119.354" gradientUnits="userSpaceOnUse">
<stop stop-color="#075985"/>
<stop offset="1" stop-color="#5B21B6"/>
</linearGradient>
</defs>
</svg>
