<svg width="240" height="240" viewBox="0 0 240 240" fill="none" xmlns="http://www.w3.org/2000/svg">
<rect width="240" height="240" rx="32" fill="url(#paint0_linear_839_127)"/>
<path d="M178.409 199.727H61.5879L61.2235 199.539C46.6901 192.085 50.9941 175.977 51.0392 175.815L51.1119 175.555L98.9645 103.605V56.7191C96.1375 53.0133 95.1262 49.5854 95.9636 46.5237C97.1479 42.1903 101.601 40.4566 101.79 40.3848L102.081 40.2734H137.919L138.212 40.3848C138.399 40.4566 142.855 42.1903 144.038 46.5237C144.875 49.5845 143.864 53.0133 141.038 56.7191V103.605L188.889 175.554L188.962 175.814C189.006 175.976 193.309 192.085 178.776 199.538L178.409 199.727Z" fill="#F7F7F7"/>
<path d="M169.38 167.105L141.092 118.72L100.658 118.72L70.6204 167.105C70.6204 167.105 67.5808 181.93 77.4581 188.826H162.541C172.419 181.93 169.38 167.105 169.38 167.105Z" fill="url(#paint1_linear_839_127)"/>
<path d="M141.239 119.173C141.239 121.01 133.812 122.515 119.908 122.515C106.005 122.515 100.533 121.035 100.533 119.196C100.533 117.355 106.004 115.856 119.908 115.856C133.812 115.856 141.239 117.332 141.239 119.173Z" fill="url(#paint2_linear_839_127)"/>
<path d="M127.34 139.035C126.457 138.647 125.673 138.072 124.976 137.38V135.512C124.976 134.285 123.981 133.29 122.754 133.29C122.578 133.29 122.408 133.315 122.244 133.354C122.194 133.251 122.145 133.149 122.097 133.046V133.4C121.193 133.681 120.531 134.515 120.531 135.512V162.951C117.46 161.783 111.748 159.966 107.624 161.525C104.842 162.577 100.927 166.859 103.282 170.954C105.637 175.05 112.205 175.691 117.951 172.387C122.376 169.842 125.021 165.699 124.929 162.059C124.957 161.914 124.976 161.763 124.976 161.603V145.564C131.086 148.736 134.684 150.857 132.632 160.433C132.632 161.353 138.614 155.141 137.234 149.159C135.853 143.177 133.092 141.566 127.34 139.035Z" fill="white"/>
<defs>
<linearGradient id="paint0_linear_839_127" x1="-63.16" y1="291.175" x2="201.826" y2="50.3591" gradientUnits="userSpaceOnUse">
<stop stop-color="#075985"/>
<stop offset="1" stop-color="#5B21B6"/>
</linearGradient>
<linearGradient id="paint1_linear_839_127" x1="91.8936" y1="170.667" x2="157.067" y2="136.055" gradientUnits="userSpaceOnUse">
<stop stop-color="#3641A2"/>
<stop offset="1" stop-color="#622DC5"/>
</linearGradient>
<linearGradient id="paint2_linear_839_127" x1="102.661" y1="120.781" x2="149.213" y2="130.694" gradientUnits="userSpaceOnUse">
<stop stop-color="#3742A3"/>
<stop offset="1" stop-color="#5F2FC3"/>
</linearGradient>
</defs>
</svg>
